<svg width="224" height="32" viewBox="0 0 224 32" fill="none" xmlns="http://www.w3.org/2000/svg">
<path d="M4.384 25.344C3.72267 25.344 3.09333 25.152 2.496 24.768C1.89867 24.384 1.45067 23.808 1.152 23.04C1.04533 22.7627 0.981333 22.464 0.96 22.144C0.917333 21.8453 0.895999 21.5467 0.895999 21.248C0.895999 20.9493 0.949333 20.8 1.056 20.8C1.16267 20.8 1.216 20.8853 1.216 21.056C1.216 22.0587 1.472 22.816 1.984 23.328C2.47467 23.84 3.104 24.096 3.872 24.096C4.61867 24.096 5.344 23.8827 6.048 23.456C6.73067 23.0293 7.37067 22.4853 7.968 21.824C8.97067 20.736 9.87733 19.4987 10.688 18.112C11.52 16.704 12.2667 15.2533 12.928 13.76C13.0987 13.3973 13.344 12.8213 13.664 12.032C13.984 11.2213 14.336 10.3467 14.72 9.408C15.104 8.448 15.4773 7.584 15.84 6.816C16.16 6.09067 16.4267 5.51467 16.64 5.088C16.8747 4.66133 17.184 4.29867 17.568 4C17.952 3.70133 18.528 3.40267 19.296 3.104C18.9547 3.12533 18.6347 3.15733 18.336 3.2C18.0373 3.22133 17.8027 3.232 17.632 3.232C16.8213 3.25333 16.0107 3.30667 15.2 3.392C14.3893 3.47733 13.664 3.63733 13.024 3.872C12.384 4.08533 11.9253 4.39467 11.648 4.8C11.456 5.07733 11.36 5.39733 11.36 5.76C11.36 6.12267 11.456 6.47467 11.648 6.816C11.84 7.15733 12.0853 7.40267 12.384 7.552C12.4267 7.59467 12.448 7.62667 12.448 7.648C12.448 7.69067 12.3947 7.744 12.288 7.808C12.2027 7.85067 12.1067 7.86133 12 7.84C11.8293 7.73333 11.616 7.56267 11.36 7.328C11.104 7.072 10.8693 6.80533 10.656 6.528C10.464 6.25067 10.336 6.016 10.272 5.824C10.1867 5.568 10.144 5.312 10.144 5.056C10.144 4.544 10.3253 4.128 10.688 3.808C11.072 3.488 11.5627 3.24267 12.16 3.072C12.7573 2.90133 13.3973 2.784 14.08 2.72C14.784 2.63467 15.456 2.592 16.096 2.592C16.7573 2.57067 17.3227 2.56 17.792 2.56H21.248C21.2907 2.56 21.312 2.57067 21.312 2.592C21.312 2.656 21.2373 2.752 21.088 2.88C20.96 2.98667 20.8747 3.04 20.832 3.04C20.2347 3.06133 19.7013 3.28533 19.232 3.712C18.784 4.13867 18.3893 4.62933 18.048 5.184C17.728 5.71733 17.4613 6.208 17.248 6.656C17.12 6.912 16.9173 7.328 16.64 7.904C16.384 8.45867 16.096 9.09867 15.776 9.824C15.4773 10.528 15.168 11.232 14.848 11.936C14.5493 12.64 14.2827 13.248 14.048 13.76C13.4933 15.04 12.9707 16.2347 12.48 17.344C12.0107 18.432 11.488 19.456 10.912 20.416C10.336 21.376 9.62133 22.3147 8.768 23.232C8.23467 23.808 7.56267 24.2987 6.752 24.704C5.92 25.1307 5.13067 25.344 4.384 25.344ZM17.38 20.096C17.1667 20.096 16.9853 20.0533 16.836 19.968C16.6867 19.8827 16.612 19.7227 16.612 19.488C16.612 19.1893 16.6867 18.8373 16.836 18.432C17.0067 18.0267 17.188 17.6213 17.38 17.216C17.572 16.8107 17.732 16.48 17.86 16.224C18.116 15.7333 18.3613 15.2427 18.596 14.752C18.8307 14.2613 19.0333 13.8453 19.204 13.504C19.3747 13.184 19.46 12.9707 19.46 12.864C19.46 12.6933 19.332 12.6933 19.076 12.864C18.8413 13.0347 18.6173 13.2053 18.404 13.376C17.9347 13.824 17.444 14.3573 16.932 14.976C16.42 15.5733 16.0253 16.0533 15.748 16.416C15.684 16.5013 15.6307 16.544 15.588 16.544C15.5453 16.544 15.524 16.4907 15.524 16.384C15.524 16.2133 15.5773 16.0533 15.684 15.904C15.9827 15.4773 16.3347 15.008 16.74 14.496C17.1453 13.984 17.5613 13.4933 17.988 13.024C18.3933 12.5973 18.8093 12.1813 19.236 11.776C19.6627 11.3707 20.2067 11.168 20.868 11.168C21.316 11.168 21.54 11.3387 21.54 11.68C21.54 11.9787 21.412 12.32 21.156 12.704C21.0067 12.9387 20.772 13.3333 20.452 13.888C20.132 14.4427 19.8013 15.0507 19.46 15.712C19.14 16.352 18.8627 16.9493 18.628 17.504C18.3933 18.0587 18.276 18.464 18.276 18.72C18.276 19.0187 18.4253 19.168 18.724 19.168C18.9587 19.168 19.2467 19.0507 19.588 18.816C19.9293 18.56 20.2813 18.2613 20.644 17.92C21.3053 17.28 21.9027 16.5867 22.436 15.84C22.9907 15.072 23.46 14.336 23.844 13.632C24.2493 12.928 24.5693 12.352 24.804 11.904C24.8467 11.8187 24.8893 11.7227 24.932 11.616C24.996 11.488 25.092 11.4133 25.22 11.392C25.348 11.3707 25.6253 11.36 26.052 11.36C26.4787 11.36 26.8733 11.2747 27.236 11.104H27.3C27.364 11.104 27.396 11.136 27.396 11.2C27.396 11.3707 27.2573 11.4987 26.98 11.584C26.724 11.6693 26.4253 11.9253 26.084 12.352C25.764 12.7787 25.444 13.3013 25.124 13.92C24.804 14.5173 24.516 15.136 24.26 15.776C24.004 16.416 23.812 17.0027 23.684 17.536C23.556 18.0693 23.524 18.464 23.588 18.72C23.6733 19.0187 23.8227 19.168 24.036 19.168C24.3133 19.168 24.6973 18.9973 25.188 18.656C25.7 18.3147 26.2227 17.9093 26.756 17.44C27.2893 16.9493 27.7267 16.5013 28.068 16.096C28.2173 15.9253 28.356 15.7547 28.484 15.584C28.612 15.4133 28.6973 15.3067 28.74 15.264C28.7613 15.2853 28.7827 15.328 28.804 15.392C28.8253 15.4347 28.836 15.4773 28.836 15.52C28.8147 15.6693 28.7613 15.8187 28.676 15.968C28.5907 16.096 28.4947 16.2133 28.388 16.32C27.9827 16.8533 27.492 17.4187 26.916 18.016C26.3613 18.592 25.7533 19.0827 25.092 19.488C24.452 19.8933 23.7907 20.096 23.108 20.096C22.8947 20.096 22.6493 20.0427 22.372 19.936C22.116 19.8293 21.988 19.5947 21.988 19.232C21.988 18.9547 22.0627 18.5813 22.212 18.112C22.3613 17.6213 22.5213 17.1413 22.692 16.672C22.884 16.1813 23.044 15.8187 23.172 15.584C22.8947 15.9893 22.5533 16.448 22.148 16.96C21.764 17.4507 21.3693 17.888 20.964 18.272C20.4307 18.784 19.8547 19.2213 19.236 19.584C18.6387 19.9253 18.02 20.096 17.38 20.096ZM32.5025 20.096C32.2892 20.096 32.1078 20.0533 31.9585 19.968C31.8092 19.8827 31.7345 19.7227 31.7345 19.488C31.7345 19.1893 31.8092 18.848 31.9585 18.464C32.1078 18.08 32.2785 17.7067 32.4705 17.344C32.6625 16.96 32.8332 16.6507 32.9825 16.416C32.2358 17.2053 31.4572 17.952 30.6465 18.656C30.2412 18.9973 29.7932 19.3173 29.3025 19.616C28.8118 19.9147 28.2892 20.064 27.7345 20.064C27.5212 20.064 27.3718 20 27.2865 19.872C27.2012 19.7227 27.1585 19.552 27.1585 19.36C27.1585 19.2533 27.1692 19.1787 27.1905 19.136C27.2972 18.304 27.5638 17.44 27.9905 16.544C28.4172 15.648 28.9398 14.8053 29.5585 14.016C30.1772 13.2267 30.8065 12.5867 31.4465 12.096C32.1718 11.5413 32.9718 11.264 33.8465 11.264H37.5265C37.6332 11.264 37.6865 11.3067 37.6865 11.392C37.6865 11.5627 37.5905 11.648 37.3985 11.648C37.1852 11.648 36.9718 11.7867 36.7585 12.064C36.5452 12.32 36.3852 12.5333 36.2785 12.704C36.1292 12.9387 35.8945 13.3333 35.5745 13.888C35.2545 14.4427 34.9238 15.0507 34.5825 15.712C34.2625 16.352 33.9852 16.9493 33.7505 17.504C33.5158 18.0587 33.3985 18.464 33.3985 18.72C33.3985 19.0187 33.5478 19.168 33.8465 19.168C34.1665 19.168 34.5292 19.0187 34.9345 18.72C35.3398 18.4213 35.7452 18.0587 36.1505 17.632C36.5772 17.184 36.9612 16.7467 37.3025 16.32C37.6652 15.872 37.9532 15.52 38.1665 15.264C38.2945 15.392 38.2838 15.5733 38.1345 15.808C38.0065 16.0213 37.8892 16.192 37.7825 16.32C37.3558 16.8747 36.8652 17.4507 36.3105 18.048C35.7558 18.624 35.1478 19.1147 34.4865 19.52C33.8465 19.904 33.1852 20.096 32.5025 20.096ZM29.0465 18.976C29.3025 18.976 29.6545 18.7947 30.1025 18.432C30.5718 18.048 31.0732 17.5787 31.6065 17.024C32.1398 16.448 32.6412 15.8507 33.1105 15.232C33.5798 14.592 33.9638 14.016 34.2625 13.504C34.5825 12.9707 34.7425 12.5653 34.7425 12.288C34.7425 12.0533 34.6678 11.8933 34.5185 11.808C34.3905 11.7227 34.2198 11.68 34.0065 11.68C33.6652 11.68 33.2918 11.808 32.8865 12.064C32.5025 12.2987 32.1932 12.5333 31.9585 12.768C31.7025 13.0027 31.3932 13.376 31.0305 13.888C30.6892 14.3787 30.3478 14.9227 30.0065 15.52C29.6652 16.1173 29.3772 16.6933 29.1425 17.248C28.9078 17.8027 28.7905 18.2507 28.7905 18.592C28.7905 18.848 28.8758 18.976 29.0465 18.976ZM37.7488 20.48C37.6634 20.48 37.6634 20.384 37.7488 20.192C37.8554 20 37.9514 19.7867 38.0368 19.552C38.1434 19.3173 38.2501 19.0613 38.3568 18.784C38.5701 18.272 38.8048 17.696 39.0608 17.056C39.3168 16.416 39.5621 15.7973 39.7968 15.2C40.0314 14.5813 40.2341 14.0587 40.4048 13.632C40.5968 13.184 40.7248 12.896 40.7888 12.768C40.4901 13.088 40.1274 13.4933 39.7008 13.984C39.2954 14.4533 38.9114 14.912 38.5488 15.36C38.1861 15.808 37.9088 16.16 37.7168 16.416C37.6528 16.5013 37.5994 16.544 37.5568 16.544C37.5141 16.544 37.4928 16.4907 37.4928 16.384C37.4928 16.2133 37.5461 16.0533 37.6528 15.904C38.0581 15.392 38.5061 14.816 38.9968 14.176C39.5088 13.536 39.9674 12.9493 40.3728 12.416C40.7781 11.8613 41.0341 11.4987 41.1408 11.328C41.3754 11.2853 41.7168 11.2213 42.1648 11.136C42.6341 11.0507 42.9541 10.9333 43.1248 10.784C43.1888 10.72 43.2528 10.688 43.3168 10.688C43.3594 10.688 43.3808 10.7307 43.3808 10.816C43.4021 10.88 43.3808 10.9547 43.3168 11.04C43.1888 11.1893 42.9648 11.5413 42.6448 12.096C42.3461 12.6293 42.0154 13.2267 41.6528 13.888C41.3114 14.5493 40.9914 15.1467 40.6927 15.68C40.9488 15.3387 41.2261 15.008 41.5248 14.688C41.8234 14.368 42.1114 14.0587 42.3888 13.76C42.6448 13.504 42.9968 13.184 43.4448 12.8C43.8928 12.416 44.3621 12.064 44.8528 11.744C45.3434 11.424 45.7701 11.2427 46.1328 11.2C46.2181 11.1787 46.2928 11.168 46.3568 11.168C46.4421 11.168 46.5061 11.168 46.5488 11.168C47.0181 11.168 47.2528 11.3387 47.2528 11.68C47.2528 11.936 47.1141 12.2773 46.8368 12.704C46.6874 12.9387 46.4528 13.3333 46.1328 13.888C45.8341 14.4213 45.5248 15.008 45.2048 15.648C44.9061 16.2667 44.6394 16.8533 44.4048 17.408C44.1914 17.9413 44.0848 18.336 44.0848 18.592C44.0848 18.8907 44.2341 19.04 44.5328 19.04C44.8954 19.04 45.2901 18.8587 45.7168 18.496C46.1648 18.1333 46.6448 17.6747 47.1568 17.12C47.6688 16.544 48.1808 15.936 48.6928 15.296C48.7354 15.3387 48.7568 15.4133 48.7568 15.52C48.7568 15.6693 48.7034 15.8187 48.5968 15.968C48.5114 16.096 48.4261 16.2133 48.3408 16.32C48.1274 16.5973 47.8394 16.9493 47.4768 17.376C47.1354 17.7813 46.7834 18.1867 46.4208 18.592C46.0581 18.976 45.7274 19.2853 45.4288 19.52C45.2154 19.6693 44.9381 19.8293 44.5968 20C44.2554 20.1707 43.9141 20.256 43.5728 20.256C43.1888 20.256 42.9221 20.16 42.7728 19.968C42.6234 19.7547 42.5488 19.4987 42.5488 19.2C42.5488 18.8587 42.6128 18.496 42.7408 18.112C42.8688 17.728 43.0074 17.3653 43.1568 17.024C43.3274 16.6613 43.4554 16.3947 43.5408 16.224C43.9248 15.4773 44.2768 14.7733 44.5968 14.112C44.9168 13.4507 45.1408 12.9813 45.2688 12.704C45.3328 12.576 45.3648 12.4693 45.3648 12.384C45.3648 12.2347 45.2474 12.224 45.0128 12.352C44.7781 12.48 44.4901 12.672 44.1488 12.928C43.8288 13.184 43.5301 13.44 43.2528 13.696C42.9754 13.9307 42.7941 14.0907 42.7088 14.176C41.9194 15.008 41.2261 15.936 40.6288 16.96C40.0528 17.9627 39.5621 18.9973 39.1568 20.064C38.8794 20.0853 38.6021 20.16 38.3248 20.288C38.0474 20.416 37.8554 20.48 37.7488 20.48ZM48.8215 25.344C48.1602 25.344 47.5308 25.152 46.9335 24.768C46.3362 24.384 45.8882 23.808 45.5895 23.04C45.4828 22.7627 45.4188 22.464 45.3975 22.144C45.3548 21.8453 45.3335 21.5467 45.3335 21.248C45.3335 20.9493 45.3868 20.8 45.4935 20.8C45.6002 20.8 45.6535 20.8853 45.6535 21.056C45.6535 22.0587 45.9095 22.816 46.4215 23.328C46.9122 23.84 47.5415 24.096 48.3095 24.096C49.0562 24.096 49.7815 23.8827 50.4855 23.456C51.1682 23.0293 51.8082 22.4853 52.4055 21.824C53.4082 20.736 54.3148 19.4987 55.1255 18.112C55.9575 16.704 56.7042 15.2533 57.3655 13.76C57.5362 13.3973 57.7815 12.8213 58.1015 12.032C58.4215 11.2213 58.7735 10.3467 59.1575 9.408C59.5415 8.448 59.9148 7.584 60.2775 6.816C60.5975 6.09067 60.8642 5.51467 61.0775 5.088C61.3122 4.66133 61.6215 4.29867 62.0055 4C62.3895 3.70133 62.9655 3.40267 63.7335 3.104C63.3922 3.12533 63.0722 3.15733 62.7735 3.2C62.4748 3.22133 62.2402 3.232 62.0695 3.232C61.2588 3.25333 60.4482 3.30667 59.6375 3.392C58.8268 3.47733 58.1015 3.63733 57.4615 3.872C56.8215 4.08533 56.3628 4.39467 56.0855 4.8C55.8935 5.07733 55.7975 5.39733 55.7975 5.76C55.7975 6.12267 55.8935 6.47467 56.0855 6.816C56.2775 7.15733 56.5228 7.40267 56.8215 7.552C56.8642 7.59467 56.8855 7.62667 56.8855 7.648C56.8855 7.69067 56.8322 7.744 56.7255 7.808C56.6402 7.85067 56.5442 7.86133 56.4375 7.84C56.2668 7.73333 56.0535 7.56267 55.7975 7.328C55.5415 7.072 55.3068 6.80533 55.0935 6.528C54.9015 6.25067 54.7735 6.016 54.7095 5.824C54.6242 5.568 54.5815 5.312 54.5815 5.056C54.5815 4.544 54.7628 4.128 55.1255 3.808C55.5095 3.488 56.0002 3.24267 56.5975 3.072C57.1948 2.90133 57.8348 2.784 58.5175 2.72C59.2215 2.63467 59.8935 2.592 60.5335 2.592C61.1948 2.57067 61.7602 2.56 62.2295 2.56H65.6855C65.7282 2.56 65.7495 2.57067 65.7495 2.592C65.7495 2.656 65.6748 2.752 65.5255 2.88C65.3975 2.98667 65.3122 3.04 65.2695 3.04C64.6722 3.06133 64.1388 3.28533 63.6695 3.712C63.2215 4.13867 62.8268 4.62933 62.4855 5.184C62.1655 5.71733 61.8988 6.208 61.6855 6.656C61.5575 6.912 61.3548 7.328 61.0775 7.904C60.8215 8.45867 60.5335 9.09867 60.2135 9.824C59.9148 10.528 59.6055 11.232 59.2855 11.936C58.9868 12.64 58.7202 13.248 58.4855 13.76C57.9308 15.04 57.4082 16.2347 56.9175 17.344C56.4482 18.432 55.9255 19.456 55.3495 20.416C54.7735 21.376 54.0588 22.3147 53.2055 23.232C52.6722 23.808 52.0002 24.2987 51.1895 24.704C50.3575 25.1307 49.5682 25.344 48.8215 25.344ZM60.5375 20.064C60.1962 20.064 59.8868 20 59.6095 19.872C59.3535 19.7227 59.2255 19.4133 59.2255 18.944C59.2255 18.1973 59.4175 17.4507 59.8015 16.704C60.1855 15.936 60.5802 15.264 60.9855 14.688C61.3482 14.1973 61.7535 13.7387 62.2015 13.312C62.6708 12.864 63.1722 12.48 63.7055 12.16C64.0468 11.9467 64.5055 11.7227 65.0815 11.488C65.6788 11.232 66.1802 11.104 66.5855 11.104C66.9268 11.104 67.2255 11.2 67.4815 11.392C67.7375 11.5627 67.8655 11.8827 67.8655 12.352C67.8655 13.0773 67.6735 13.824 67.2895 14.592C66.9268 15.3387 66.5428 16 66.1375 16.576C65.9455 16.832 65.7535 17.0773 65.5615 17.312C65.3695 17.5253 65.1562 17.7493 64.9215 17.984C65.7108 17.984 66.4362 17.76 67.0975 17.312C67.7588 16.8427 68.3348 16.2773 68.8255 15.616L68.8895 15.552C68.9535 15.552 68.9855 15.616 68.9855 15.744C68.9855 15.8933 68.9428 16.032 68.8575 16.16C68.4308 16.7573 67.8975 17.2907 67.2575 17.76C66.6175 18.208 65.8922 18.432 65.0815 18.432C64.9962 18.432 64.9108 18.432 64.8255 18.432C64.7402 18.432 64.6548 18.4213 64.5695 18.4C63.3748 19.5093 62.0308 20.064 60.5375 20.064ZM61.3695 19.52C61.6682 19.52 61.9882 19.4133 62.3295 19.2C62.6922 18.9867 62.9695 18.784 63.1615 18.592C63.5242 18.2293 63.8548 17.8453 64.1535 17.44C64.4522 17.0133 64.7295 16.5867 64.9855 16.16C65.2842 15.648 65.5828 15.04 65.8815 14.336C66.1802 13.632 66.3295 12.9707 66.3295 12.352C66.3295 11.8613 66.1588 11.616 65.8175 11.616C65.5402 11.616 65.1988 11.7333 64.7935 11.968C64.4095 12.2027 64.1215 12.416 63.9295 12.608C63.2042 13.3547 62.5962 14.1653 62.1055 15.04C61.8282 15.5307 61.5295 16.1067 61.2095 16.768C60.8895 17.4293 60.7295 18.0373 60.7295 18.592C60.7295 18.6773 60.7295 18.7627 60.7295 18.848C60.7508 18.912 60.7722 18.9867 60.7935 19.072C60.8788 19.3707 61.0708 19.52 61.3695 19.52ZM70.4143 20.512C70.0303 20.512 69.6249 20.4587 69.1983 20.352C68.7716 20.2453 68.3876 20.0747 68.0463 19.84C67.7263 19.584 67.5129 19.2427 67.4062 18.816C67.3849 18.752 67.3742 18.656 67.3742 18.528C67.3742 18.2293 67.4383 17.8987 67.5663 17.536C67.7156 17.1733 67.8969 16.9173 68.1103 16.768C68.1956 16.7253 68.2596 16.7253 68.3023 16.768C68.3663 16.8107 68.3769 16.8533 68.3343 16.896C68.3129 16.96 68.2809 17.0453 68.2383 17.152C68.1956 17.2373 68.1636 17.3333 68.1423 17.44C68.0783 17.9947 68.1956 18.4853 68.4943 18.912C68.6223 19.0827 68.7716 19.2427 68.9423 19.392C69.1343 19.5413 69.3156 19.6693 69.4863 19.776C69.6356 19.8613 69.8169 19.9253 70.0303 19.968C70.2436 19.9893 70.4569 20 70.6703 20C71.0116 20 71.3423 19.9573 71.6623 19.872C71.9823 19.7867 72.2169 19.648 72.3663 19.456C72.6436 19.1147 72.7823 18.7307 72.7823 18.304C72.7823 17.984 72.6969 17.6427 72.5263 17.28C72.3556 16.9173 72.0889 16.5333 71.7263 16.128C71.4916 15.872 71.2676 15.5947 71.0543 15.296C70.8409 14.9973 70.7023 14.6773 70.6383 14.336C70.6169 14.272 70.5956 14.208 70.5743 14.144C70.5743 14.08 70.5743 14.016 70.5743 13.952C70.2969 14.3573 70.0089 14.7413 69.7103 15.104C69.4329 15.4453 69.1876 15.744 68.9743 16C68.8889 16.128 68.8143 16.192 68.7503 16.192C68.7076 16.192 68.6863 16.1493 68.6863 16.064C68.6863 15.872 68.7716 15.6693 68.9423 15.456C69.1129 15.264 69.3049 15.0293 69.5182 14.752C69.7316 14.4533 69.9023 14.2187 70.0303 14.048C70.3929 13.5147 70.6596 13.0987 70.8303 12.8C71.0223 12.48 71.2249 12.192 71.4383 11.936C71.6729 11.6587 71.9609 11.4347 72.3023 11.264C72.6649 11.0933 73.0383 11.008 73.4223 11.008C73.8703 11.008 74.2756 11.0827 74.6383 11.232C75.0223 11.36 75.2249 11.7013 75.2463 12.256C75.2463 12.512 75.1929 12.7787 75.0863 13.056C75.0009 13.312 74.9049 13.5573 74.7983 13.792C74.7343 13.92 74.6383 14.016 74.5103 14.08C74.4036 14.1227 74.3503 14.1013 74.3503 14.016C74.3503 13.9307 74.3609 13.8347 74.3823 13.728C74.4036 13.6213 74.4143 13.5253 74.4143 13.44C74.4143 13.0773 74.3503 12.7573 74.2223 12.48C74.1156 12.1813 73.9556 11.968 73.7423 11.84C73.5289 11.6907 73.3049 11.616 73.0703 11.616C72.7289 11.616 72.3983 11.7547 72.0783 12.032C71.7583 12.288 71.5983 12.6293 71.5983 13.056C71.5983 13.0987 71.5983 13.152 71.5983 13.216C71.5983 13.28 71.6089 13.3333 71.6302 13.376C71.7156 13.7173 71.9716 14.1013 72.3983 14.528C72.8249 14.9547 73.1556 15.328 73.3903 15.648C73.7956 16.2027 73.9983 16.768 73.9983 17.344C73.9983 17.92 73.8276 18.4533 73.4863 18.944C73.1663 19.4133 72.7289 19.7867 72.1743 20.064C71.6409 20.3627 71.0543 20.512 70.4143 20.512ZM77.7558 20.256C76.8811 20.256 76.2731 20.0853 75.9318 19.744C75.5904 19.4027 75.4198 18.9867 75.4198 18.496C75.4198 17.8773 75.5798 17.216 75.8997 16.512C76.2411 15.808 76.5611 15.2107 76.8598 14.72C77.2011 14.208 77.6598 13.6747 78.2358 13.12C78.8118 12.5653 79.4411 12.096 80.1238 11.712C80.8064 11.328 81.4678 11.136 82.1078 11.136C82.6624 11.136 83.0464 11.2747 83.2598 11.552C83.4731 11.808 83.5798 12.1173 83.5798 12.48C83.5798 13.1413 83.3771 13.6853 82.9718 14.112C82.5878 14.5387 82.1078 14.8907 81.5318 15.168C80.9558 15.424 80.4011 15.6373 79.8678 15.808C79.5478 15.8933 79.1744 15.9787 78.7478 16.064C78.3211 16.1493 77.9158 16.192 77.5318 16.192C77.3824 16.576 77.2651 16.9493 77.1798 17.312C77.0944 17.6747 77.0518 18.0053 77.0518 18.304C77.0518 18.6667 77.1371 18.9653 77.3078 19.2C77.4998 19.4347 77.8091 19.552 78.2358 19.552C78.4064 19.552 78.6091 19.5307 78.8438 19.488C79.0784 19.4453 79.3344 19.3813 79.6118 19.296C80.2518 19.0827 80.8811 18.7413 81.4998 18.272C82.1184 17.8027 82.6838 17.3013 83.1958 16.768C83.7291 16.2133 84.1344 15.7547 84.4118 15.392C84.4758 15.456 84.5078 15.5307 84.5078 15.616C84.5078 15.7227 84.4331 15.8933 84.2838 16.128C83.8571 16.7253 83.3024 17.344 82.6198 17.984C81.9371 18.624 81.1798 19.168 80.3478 19.616C79.5158 20.0427 78.6518 20.256 77.7558 20.256ZM77.7878 15.552C78.0651 15.5733 78.3744 15.5733 78.7158 15.552C79.0784 15.5093 79.4304 15.4347 79.7718 15.328C80.6464 15.072 81.2758 14.6667 81.6598 14.112C82.0651 13.536 82.2678 13.024 82.2678 12.576C82.2678 12.32 82.2144 12.1067 82.1078 11.936C82.0011 11.7653 81.8304 11.68 81.5958 11.68C80.9771 11.68 80.4224 11.9147 79.9318 12.384C79.4411 12.832 79.0144 13.3547 78.6518 13.952C78.2891 14.5493 78.0011 15.0827 77.7878 15.552ZM91.9628 21.248C91.3014 21.248 90.6721 21.056 90.0748 20.672C89.4774 20.3093 89.0294 19.744 88.7308 18.976C88.6241 18.6987 88.5494 18.4 88.5068 18.08C88.4854 17.76 88.4748 17.4507 88.4748 17.152C88.4748 16.8533 88.5281 16.704 88.6348 16.704C88.7414 16.704 88.7948 16.8 88.7948 16.992C88.7948 17.9733 89.0401 18.7307 89.5308 19.264C90.0428 19.776 90.6828 20.032 91.4508 20.032C92.3894 20.032 93.2641 19.776 94.0748 19.264C94.9068 18.752 95.6641 18.1227 96.3468 17.376C97.0294 16.608 97.6374 15.84 98.1708 15.072C97.9148 15.2213 97.7014 15.296 97.5308 15.296C97.2961 15.296 97.1894 15.2107 97.2108 15.04C97.2108 14.9973 97.2214 14.944 97.2428 14.88C97.2854 14.7947 97.3174 14.7307 97.3388 14.688C97.4028 14.5173 97.4561 14.336 97.4988 14.144C97.5628 13.952 97.6268 13.7707 97.6908 13.6C97.8614 12.9173 98.0321 12.064 98.2028 11.04C98.3734 10.016 98.4588 8.98133 98.4588 7.936C98.4588 7.04 98.3734 6.18667 98.2028 5.376C98.0321 4.56533 97.7228 3.904 97.2748 3.392H96.5068C96.1868 3.392 95.7388 3.41333 95.1628 3.456C94.6081 3.49867 94.0428 3.59467 93.4668 3.744C92.8908 3.89333 92.4108 4.13867 92.0268 4.48C91.6428 4.82133 91.4721 5.28 91.5148 5.856C91.5361 6.02667 91.6001 6.26133 91.7068 6.56C91.8134 6.83733 91.8774 7.008 91.8988 7.072L91.5788 7.328C91.4508 7.09333 91.2908 6.82667 91.0988 6.528C90.9068 6.208 90.7254 5.89867 90.5548 5.6C90.4054 5.30133 90.3201 5.07733 90.2988 4.928C90.2774 4.71467 90.2881 4.43733 90.3307 4.096C90.3948 3.75467 90.5654 3.456 90.8428 3.2C91.1628 2.92267 91.6001 2.74133 92.1548 2.656C92.7308 2.57067 93.3174 2.528 93.9148 2.528C94.4908 2.528 95.0454 2.54933 95.5788 2.592C96.1121 2.63467 96.5494 2.656 96.8908 2.656C96.8908 2.656 97.3814 2.656 98.3628 2.656C99.3654 2.63467 100.581 2.624 102.011 2.624L101.339 3.456C100.741 3.456 100.251 3.456 99.8668 3.456C99.5041 3.43467 99.1734 3.424 98.8748 3.424C98.5974 3.40267 98.2561 3.392 97.8508 3.392C98.5974 3.904 99.1094 4.62933 99.3868 5.568C99.6854 6.50667 99.8348 7.50933 99.8348 8.576C99.8348 9.49333 99.7601 10.4 99.6108 11.296C99.4614 12.1707 99.3014 12.9173 99.1308 13.536C100.133 12.1493 101.093 10.72 102.011 9.248C102.928 7.776 103.952 6.38933 105.083 5.088C105.445 4.68267 105.872 4.224 106.363 3.712C106.875 3.17867 107.429 2.70933 108.027 2.304C108.645 1.89867 109.264 1.696 109.883 1.696C110.181 1.696 110.437 1.76 110.651 1.888C110.864 2.016 111.045 2.24 111.195 2.56C111.301 2.816 111.355 3.05067 111.355 3.264C111.355 3.60533 111.291 3.91467 111.163 4.192C111.035 4.46933 110.939 4.68267 110.875 4.832C110.853 4.91733 110.8 4.96 110.715 4.96C110.629 4.96 110.597 4.91733 110.619 4.832C110.661 4.72533 110.683 4.61867 110.683 4.512C110.683 4.40533 110.683 4.30933 110.683 4.224C110.683 3.84 110.587 3.488 110.395 3.168C110.203 2.848 109.893 2.688 109.467 2.688C108.869 2.688 108.208 2.98667 107.483 3.584C106.757 4.18133 106.085 4.832 105.467 5.536C104.357 6.816 103.397 8.032 102.587 9.184C101.797 10.336 101.051 11.5093 100.347 12.704C99.6428 13.8773 98.8854 15.168 98.0748 16.576C97.6268 17.3653 97.1041 18.1227 96.5068 18.848C95.9308 19.552 95.2694 20.128 94.5228 20.576C93.7974 21.024 92.9441 21.248 91.9628 21.248ZM113.79 31.136C112.979 31.136 112.136 30.9547 111.262 30.592C110.408 30.2507 109.8 29.696 109.438 28.928C109.288 28.6507 109.192 28.352 109.15 28.032C109.128 27.7333 109.118 27.4347 109.118 27.136V26.784C109.118 26.6133 109.139 26.4533 109.182 26.304C109.224 26.176 109.331 26.112 109.502 26.112C109.544 26.112 109.566 26.1333 109.566 26.176C109.566 26.304 109.555 26.432 109.534 26.56C109.512 26.688 109.502 26.8267 109.502 26.976C109.502 27.9573 109.811 28.704 110.43 29.216C111.07 29.728 111.859 29.984 112.798 29.984C114.142 29.984 115.379 29.6533 116.51 28.992C117.64 28.3307 118.664 27.424 119.582 26.272C120.478 25.1627 121.203 24.0747 121.758 23.008C122.334 21.9627 122.835 20.896 123.262 19.808C123.688 18.72 124.126 17.6 124.574 16.448C124.019 17.28 123.251 18.048 122.27 18.752C121.288 19.4347 120.222 19.9787 119.07 20.384C117.939 20.8107 116.84 21.024 115.774 21.024C114.643 21.024 113.576 20.8213 112.574 20.416C111.592 20.032 110.803 19.4453 110.206 18.656C109.608 17.8667 109.31 16.8747 109.31 15.68C109.31 14.2933 109.576 12.9387 110.11 11.616C110.643 10.2933 111.358 9.06667 112.254 7.936C113.15 6.784 114.152 5.792 115.262 4.96C116.243 4.21333 117.374 3.60533 118.654 3.136C119.955 2.66667 121.246 2.432 122.526 2.432C123.059 2.432 123.56 2.47467 124.03 2.56C124.499 2.624 124.979 2.77333 125.47 3.008C125.896 3.2 126.238 3.44533 126.494 3.744C126.75 4.02133 126.878 4.34133 126.878 4.704C126.878 4.74667 126.878 4.8 126.878 4.864C126.878 4.928 126.867 4.98133 126.846 5.024C126.76 5.36533 126.558 5.76 126.238 6.208C125.939 6.63467 125.704 7.08267 125.534 7.552C125.512 7.63733 125.395 7.712 125.182 7.776C124.968 7.81867 124.883 7.79733 124.926 7.712C125.096 7.43467 125.224 7.09333 125.31 6.688C125.416 6.28267 125.47 5.87733 125.47 5.472C125.47 5.17333 125.438 4.896 125.374 4.64C125.331 4.36267 125.246 4.128 125.118 3.936C124.904 3.552 124.574 3.28533 124.126 3.136C123.678 2.98667 123.198 2.912 122.686 2.912C122.195 2.912 121.704 2.96533 121.214 3.072C120.723 3.17867 120.296 3.296 119.934 3.424C118.696 3.872 117.512 4.576 116.382 5.536C115.379 6.41067 114.483 7.424 113.694 8.576C112.926 9.728 112.318 10.912 111.87 12.128C111.422 13.344 111.198 14.5067 111.198 15.616C111.198 16.7467 111.411 17.664 111.838 18.368C112.286 19.072 112.872 19.5947 113.598 19.936C114.323 20.256 115.102 20.416 115.934 20.416C117.662 20.416 119.176 20.0213 120.478 19.232C121.8 18.4213 122.92 17.3653 123.838 16.064C124.755 14.7627 125.459 13.3653 125.95 11.872H122.654C122.398 11.872 122.046 11.8933 121.598 11.936C121.15 11.9573 120.691 12.032 120.222 12.16C119.752 12.2667 119.358 12.448 119.038 12.704C118.718 12.96 118.558 13.312 118.558 13.76C118.558 13.9093 118.579 14.0693 118.622 14.24C118.664 14.3893 118.696 14.5067 118.718 14.592L118.43 14.784C118.28 14.5067 118.099 14.2187 117.886 13.92C117.694 13.6 117.587 13.344 117.566 13.152C117.544 12.9813 117.555 12.7573 117.598 12.48C117.64 12.2027 117.779 11.9573 118.014 11.744C118.27 11.5093 118.632 11.36 119.102 11.296C119.592 11.2107 120.094 11.168 120.606 11.168C121.075 11.168 121.523 11.1893 121.95 11.232C122.376 11.2533 122.718 11.264 122.974 11.264H129.054L128.702 11.648C128.403 11.648 128.072 11.7013 127.71 11.808C127.347 11.8933 127.048 12.0853 126.814 12.384C126.344 12.9813 125.982 13.6533 125.726 14.4C125.491 15.1467 125.246 15.936 124.99 16.768C124.563 18.2827 124.147 19.7653 123.742 21.216C123.336 22.688 122.792 24.0747 122.11 25.376C121.448 26.6987 120.478 27.9147 119.198 29.024C118.515 29.6 117.662 30.0907 116.638 30.496C115.614 30.9227 114.664 31.136 113.79 31.136ZM128.131 20.064C127.79 20.064 127.481 20 127.203 19.872C126.947 19.7227 126.819 19.4133 126.819 18.944C126.819 18.1973 127.011 17.4507 127.395 16.704C127.779 15.936 128.174 15.264 128.579 14.688C128.942 14.1973 129.347 13.7387 129.795 13.312C130.265 12.864 130.766 12.48 131.299 12.16C131.641 11.9467 132.099 11.7227 132.675 11.488C133.273 11.232 133.774 11.104 134.179 11.104C134.521 11.104 134.819 11.2 135.075 11.392C135.331 11.5627 135.459 11.8827 135.459 12.352C135.459 13.0773 135.267 13.824 134.883 14.592C134.521 15.3387 134.137 16 133.731 16.576C133.539 16.832 133.347 17.0773 133.155 17.312C132.963 17.5253 132.75 17.7493 132.515 17.984C133.305 17.984 134.03 17.76 134.691 17.312C135.353 16.8427 135.929 16.2773 136.419 15.616L136.483 15.552C136.547 15.552 136.579 15.616 136.579 15.744C136.579 15.8933 136.537 16.032 136.451 16.16C136.025 16.7573 135.491 17.2907 134.851 17.76C134.211 18.208 133.486 18.432 132.675 18.432C132.59 18.432 132.505 18.432 132.419 18.432C132.334 18.432 132.249 18.4213 132.163 18.4C130.969 19.5093 129.625 20.064 128.131 20.064ZM128.963 19.52C129.262 19.52 129.582 19.4133 129.923 19.2C130.286 18.9867 130.563 18.784 130.755 18.592C131.118 18.2293 131.449 17.8453 131.747 17.44C132.046 17.0133 132.323 16.5867 132.579 16.16C132.878 15.648 133.177 15.04 133.475 14.336C133.774 13.632 133.923 12.9707 133.923 12.352C133.923 11.8613 133.753 11.616 133.411 11.616C133.134 11.616 132.793 11.7333 132.387 11.968C132.003 12.2027 131.715 12.416 131.523 12.608C130.798 13.3547 130.19 14.1653 129.699 15.04C129.422 15.5307 129.123 16.1067 128.803 16.768C128.483 17.4293 128.323 18.0373 128.323 18.592C128.323 18.6773 128.323 18.7627 128.323 18.848C128.345 18.912 128.366 18.9867 128.387 19.072C128.473 19.3707 128.665 19.52 128.963 19.52ZM132.792 31.2C131.981 31.2 131.203 31.008 130.456 30.624C129.688 30.2613 129.123 29.696 128.76 28.928C128.632 28.6507 128.547 28.352 128.504 28.032C128.461 27.7333 128.44 27.4347 128.44 27.136V26.784C128.44 26.6133 128.461 26.4533 128.504 26.304C128.547 26.176 128.653 26.112 128.824 26.112C128.867 26.112 128.888 26.1333 128.888 26.176C128.888 26.304 128.877 26.432 128.856 26.56C128.835 26.688 128.824 26.8267 128.824 26.976C128.824 27.9573 129.144 28.704 129.784 29.216C130.403 29.728 131.181 29.984 132.12 29.984C132.504 29.984 132.899 29.9413 133.304 29.856C133.709 29.7707 134.093 29.6533 134.456 29.504C135.8 28.928 136.963 28.1067 137.944 27.04C138.947 25.9947 139.821 24.8107 140.568 23.488C141.315 22.1653 141.987 20.8213 142.584 19.456C142.925 18.6453 143.224 17.856 143.48 17.088C143.757 16.32 144.003 15.6267 144.216 15.008C144.003 15.3067 143.725 15.6693 143.384 16.096C143.043 16.5227 142.701 16.9387 142.36 17.344C142.019 17.728 141.72 18.0373 141.464 18.272C140.931 18.784 140.355 19.2213 139.736 19.584C139.139 19.9253 138.52 20.096 137.88 20.096C137.667 20.096 137.485 20.0533 137.336 19.968C137.187 19.8827 137.112 19.7227 137.112 19.488C137.112 19.1893 137.187 18.8373 137.336 18.432C137.507 18.0267 137.688 17.6213 137.88 17.216C138.072 16.8107 138.232 16.48 138.36 16.224C138.616 15.7333 138.861 15.2427 139.096 14.752C139.331 14.2613 139.533 13.8453 139.704 13.504C139.875 13.184 139.96 12.9707 139.96 12.864C139.96 12.6933 139.832 12.6933 139.576 12.864C139.341 13.0347 139.117 13.2053 138.904 13.376C138.435 13.824 137.944 14.3573 137.432 14.976C136.92 15.5733 136.525 16.0533 136.248 16.416C136.184 16.5013 136.131 16.544 136.088 16.544C136.045 16.544 136.024 16.4907 136.024 16.384C136.024 16.2133 136.077 16.0533 136.184 15.904C136.483 15.4773 136.835 15.008 137.24 14.496C137.645 13.984 138.061 13.4933 138.488 13.024C138.893 12.5973 139.309 12.1813 139.736 11.776C140.163 11.3707 140.707 11.168 141.368 11.168C141.816 11.168 142.04 11.3387 142.04 11.68C142.04 11.9787 141.912 12.32 141.656 12.704C141.507 12.9387 141.272 13.3333 140.952 13.888C140.632 14.4427 140.301 15.0507 139.96 15.712C139.64 16.352 139.363 16.9493 139.128 17.504C138.893 18.0587 138.776 18.464 138.776 18.72C138.776 19.0187 138.925 19.168 139.224 19.168C139.459 19.168 139.747 19.0507 140.088 18.816C140.429 18.56 140.781 18.2613 141.144 17.92C141.763 17.3227 142.328 16.6613 142.84 15.936C143.373 15.2107 143.832 14.5173 144.216 13.856C144.28 13.7493 144.387 13.5573 144.536 13.28C144.707 13.0027 144.877 12.736 145.048 12.48C145.24 12.224 145.389 12.0747 145.496 12.032C145.603 11.9893 145.816 11.872 146.136 11.68C146.456 11.488 146.776 11.36 147.096 11.296C147.395 11.232 147.619 11.2 147.768 11.2C148.003 11.2 148.12 11.264 148.12 11.392C148.12 11.5627 148.024 11.648 147.832 11.648C147.597 11.648 147.384 11.712 147.192 11.84C147 11.9467 146.851 12.0853 146.744 12.256C146.552 12.5333 146.275 13.0347 145.912 13.76C145.571 14.4853 145.187 15.328 144.76 16.288C144.355 17.2267 143.949 18.1867 143.544 19.168C143.139 20.128 142.765 21.0133 142.424 21.824C141.912 23.04 141.325 24.224 140.664 25.376C140.003 26.5493 139.224 27.5947 138.328 28.512C137.453 29.4507 136.408 30.1867 135.192 30.72C134.467 31.04 133.667 31.2 132.792 31.2ZM153.744 7.776C153.445 7.776 153.232 7.68 153.104 7.488C153.019 7.38133 152.976 7.24267 152.976 7.072C152.976 6.73067 153.136 6.45333 153.456 6.24C153.691 6.112 153.904 6.048 154.096 6.048C154.416 6.048 154.64 6.144 154.768 6.336C154.853 6.44267 154.896 6.58133 154.896 6.752C154.896 7.09333 154.725 7.37067 154.384 7.584C154.192 7.712 153.979 7.776 153.744 7.776ZM148.176 20.096C147.963 20.096 147.781 20.0533 147.632 19.968C147.504 19.8827 147.44 19.7227 147.44 19.488C147.44 19.1893 147.515 18.8373 147.664 18.432C147.835 18.0267 148.016 17.6213 148.208 17.216C148.421 16.8107 148.581 16.48 148.688 16.224C148.837 15.9253 149.019 15.5413 149.232 15.072C149.467 14.5813 149.68 14.1227 149.872 13.696C150.085 13.248 150.235 12.9387 150.32 12.768C150.021 13.088 149.659 13.4933 149.232 13.984C148.827 14.4533 148.443 14.912 148.08 15.36C147.717 15.808 147.44 16.16 147.248 16.416C147.184 16.5013 147.131 16.544 147.088 16.544C147.045 16.544 147.024 16.4907 147.024 16.384C147.024 16.2133 147.077 16.0533 147.184 15.904C147.589 15.392 148.037 14.816 148.528 14.176C149.04 13.536 149.499 12.9493 149.904 12.416C150.309 11.8613 150.565 11.4987 150.672 11.328C150.907 11.2853 151.248 11.2213 151.696 11.136C152.165 11.0507 152.485 10.9333 152.656 10.784C152.72 10.72 152.784 10.688 152.848 10.688C152.891 10.688 152.912 10.7307 152.912 10.816C152.933 10.88 152.912 10.9547 152.848 11.04C152.72 11.1893 152.496 11.552 152.176 12.128C151.856 12.704 151.515 13.344 151.152 14.048C150.811 14.7307 150.491 15.3493 150.192 15.904C149.893 16.48 149.637 17.0347 149.424 17.568C149.211 18.1013 149.104 18.4853 149.104 18.72C149.104 19.0187 149.253 19.168 149.552 19.168C149.829 19.168 150.181 18.9973 150.608 18.656C151.056 18.3147 151.504 17.9093 151.952 17.44C152.4 16.9493 152.795 16.5013 153.136 16.096C153.243 15.968 153.371 15.8187 153.52 15.648C153.691 15.456 153.797 15.3387 153.84 15.296C153.883 15.3387 153.904 15.4133 153.904 15.52C153.883 15.6693 153.829 15.8187 153.744 15.968C153.659 16.096 153.573 16.2133 153.488 16.32C153.04 16.8747 152.549 17.4507 152.016 18.048C151.483 18.624 150.896 19.1147 150.256 19.52C149.616 19.904 148.923 20.096 148.176 20.096ZM163.259 31.136C162.448 31.136 161.605 30.9547 160.731 30.592C159.877 30.2507 159.269 29.696 158.907 28.928C158.757 28.6507 158.661 28.352 158.618 28.032C158.597 27.7333 158.587 27.4347 158.587 27.136V26.784C158.587 26.6133 158.608 26.4533 158.651 26.304C158.693 26.176 158.8 26.112 158.971 26.112C159.013 26.112 159.035 26.1333 159.035 26.176C159.035 26.304 159.024 26.432 159.003 26.56C158.981 26.688 158.971 26.8267 158.971 26.976C158.971 27.9573 159.28 28.704 159.899 29.216C160.539 29.728 161.328 29.984 162.266 29.984C163.611 29.984 164.848 29.6533 165.979 28.992C167.109 28.3307 168.133 27.424 169.051 26.272C169.947 25.1627 170.672 24.0747 171.227 23.008C171.803 21.9627 172.304 20.896 172.731 19.808C173.157 18.72 173.595 17.6 174.043 16.448C173.488 17.28 172.72 18.048 171.739 18.752C170.757 19.4347 169.691 19.9787 168.539 20.384C167.408 20.8107 166.309 21.024 165.243 21.024C164.112 21.024 163.045 20.8213 162.043 20.416C161.061 20.032 160.272 19.4453 159.674 18.656C159.077 17.8667 158.779 16.8747 158.779 15.68C158.779 14.2933 159.045 12.9387 159.579 11.616C160.112 10.2933 160.827 9.06667 161.723 7.936C162.619 6.784 163.621 5.792 164.731 4.96C165.712 4.21333 166.843 3.60533 168.123 3.136C169.424 2.66667 170.715 2.432 171.995 2.432C172.528 2.432 173.029 2.47467 173.499 2.56C173.968 2.624 174.448 2.77333 174.939 3.008C175.365 3.2 175.707 3.44533 175.963 3.744C176.219 4.02133 176.347 4.34133 176.347 4.704C176.347 4.74667 176.347 4.8 176.347 4.864C176.347 4.928 176.336 4.98133 176.315 5.024C176.229 5.36533 176.027 5.76 175.707 6.208C175.408 6.63467 175.173 7.08267 175.003 7.552C174.981 7.63733 174.864 7.712 174.651 7.776C174.437 7.81867 174.352 7.79733 174.395 7.712C174.565 7.43467 174.693 7.09333 174.779 6.688C174.885 6.28267 174.939 5.87733 174.939 5.472C174.939 5.17333 174.907 4.896 174.843 4.64C174.8 4.36267 174.715 4.128 174.587 3.936C174.373 3.552 174.043 3.28533 173.595 3.136C173.147 2.98667 172.667 2.912 172.155 2.912C171.664 2.912 171.173 2.96533 170.683 3.072C170.192 3.17867 169.765 3.296 169.403 3.424C168.165 3.872 166.981 4.576 165.851 5.536C164.848 6.41067 163.952 7.424 163.163 8.576C162.395 9.728 161.787 10.912 161.339 12.128C160.891 13.344 160.667 14.5067 160.667 15.616C160.667 16.7467 160.88 17.664 161.307 18.368C161.755 19.072 162.341 19.5947 163.067 19.936C163.792 20.256 164.571 20.416 165.403 20.416C167.131 20.416 168.645 20.0213 169.947 19.232C171.269 18.4213 172.389 17.3653 173.307 16.064C174.224 14.7627 174.928 13.3653 175.419 11.872H172.123C171.867 11.872 171.515 11.8933 171.067 11.936C170.619 11.9573 170.16 12.032 169.691 12.16C169.221 12.2667 168.827 12.448 168.507 12.704C168.187 12.96 168.027 13.312 168.027 13.76C168.027 13.9093 168.048 14.0693 168.091 14.24C168.133 14.3893 168.165 14.5067 168.187 14.592L167.899 14.784C167.749 14.5067 167.568 14.2187 167.355 13.92C167.163 13.6 167.056 13.344 167.035 13.152C167.013 12.9813 167.024 12.7573 167.067 12.48C167.109 12.2027 167.248 11.9573 167.483 11.744C167.739 11.5093 168.101 11.36 168.571 11.296C169.061 11.2107 169.563 11.168 170.075 11.168C170.544 11.168 170.992 11.1893 171.419 11.232C171.845 11.2533 172.187 11.264 172.443 11.264H178.523L178.171 11.648C177.872 11.648 177.541 11.7013 177.179 11.808C176.816 11.8933 176.517 12.0853 176.283 12.384C175.813 12.9813 175.451 13.6533 175.194 14.4C174.96 15.1467 174.715 15.936 174.458 16.768C174.032 18.2827 173.616 19.7653 173.211 21.216C172.805 22.688 172.261 24.0747 171.579 25.376C170.917 26.6987 169.947 27.9147 168.667 29.024C167.984 29.6 167.131 30.0907 166.107 30.496C165.083 30.9227 164.133 31.136 163.259 31.136ZM181.44 20.096C181.227 20.096 181.045 20.0533 180.896 19.968C180.747 19.8827 180.672 19.7227 180.672 19.488C180.672 19.1893 180.747 18.848 180.896 18.464C181.045 18.08 181.216 17.7067 181.408 17.344C181.6 16.96 181.771 16.6507 181.92 16.416C181.173 17.2053 180.395 17.952 179.584 18.656C179.179 18.9973 178.731 19.3173 178.24 19.616C177.749 19.9147 177.227 20.064 176.672 20.064C176.459 20.064 176.309 20 176.224 19.872C176.139 19.7227 176.096 19.552 176.096 19.36C176.096 19.2533 176.107 19.1787 176.128 19.136C176.235 18.304 176.501 17.44 176.928 16.544C177.355 15.648 177.877 14.8053 178.496 14.016C179.115 13.2267 179.744 12.5867 180.384 12.096C181.109 11.5413 181.909 11.264 182.784 11.264H186.464C186.571 11.264 186.624 11.3067 186.624 11.392C186.624 11.5627 186.528 11.648 186.336 11.648C186.123 11.648 185.909 11.7867 185.696 12.064C185.483 12.32 185.323 12.5333 185.216 12.704C185.067 12.9387 184.832 13.3333 184.512 13.888C184.192 14.4427 183.861 15.0507 183.52 15.712C183.2 16.352 182.923 16.9493 182.688 17.504C182.453 18.0587 182.336 18.464 182.336 18.72C182.336 19.0187 182.485 19.168 182.784 19.168C183.104 19.168 183.467 19.0187 183.872 18.72C184.277 18.4213 184.683 18.0587 185.088 17.632C185.515 17.184 185.899 16.7467 186.24 16.32C186.603 15.872 186.891 15.52 187.104 15.264C187.232 15.392 187.221 15.5733 187.072 15.808C186.944 16.0213 186.827 16.192 186.72 16.32C186.293 16.8747 185.803 17.4507 185.248 18.048C184.693 18.624 184.085 19.1147 183.424 19.52C182.784 19.904 182.123 20.096 181.44 20.096ZM177.984 18.976C178.24 18.976 178.592 18.7947 179.04 18.432C179.509 18.048 180.011 17.5787 180.544 17.024C181.077 16.448 181.579 15.8507 182.048 15.232C182.517 14.592 182.901 14.016 183.2 13.504C183.52 12.9707 183.68 12.5653 183.68 12.288C183.68 12.0533 183.605 11.8933 183.456 11.808C183.328 11.7227 183.157 11.68 182.944 11.68C182.603 11.68 182.229 11.808 181.824 12.064C181.44 12.2987 181.131 12.5333 180.896 12.768C180.64 13.0027 180.331 13.376 179.968 13.888C179.627 14.3787 179.285 14.9227 178.944 15.52C178.603 16.1173 178.315 16.6933 178.08 17.248C177.845 17.8027 177.728 18.2507 177.728 18.592C177.728 18.848 177.813 18.976 177.984 18.976ZM188.606 20.064C187.966 20.064 187.529 19.9147 187.294 19.616C187.06 19.296 186.942 18.912 186.942 18.464C186.942 17.8667 187.07 17.2267 187.326 16.544C187.604 15.8613 187.828 15.328 187.998 14.944C187.721 15.2427 187.454 15.5307 187.198 15.808C186.942 16.0853 186.761 16.288 186.654 16.416C186.59 16.5013 186.537 16.544 186.494 16.544C186.452 16.544 186.43 16.4907 186.43 16.384C186.43 16.2133 186.484 16.0533 186.59 15.904C186.889 15.52 187.23 15.1147 187.614 14.688C187.998 14.2613 188.372 13.8133 188.734 13.344C189.161 12.5547 189.63 11.6373 190.142 10.592C190.676 9.52533 191.22 8.43733 191.774 7.328C192.35 6.19733 192.905 5.16267 193.438 4.224C193.993 3.264 194.484 2.496 194.91 1.92C195.273 1.77067 195.614 1.57867 195.934 1.344C196.276 1.10933 196.606 0.895999 196.926 0.703999C197.268 0.490665 197.62 0.383999 197.982 0.383999C198.217 0.383999 198.388 0.447999 198.494 0.575998C198.622 0.703999 198.708 0.853333 198.75 1.024C198.772 1.088 198.782 1.20533 198.782 1.376C198.782 1.86667 198.612 2.464 198.27 3.168C197.95 3.872 197.566 4.56533 197.118 5.248C196.692 5.90933 196.318 6.45333 195.998 6.88C195.145 8.07467 194.27 9.16267 193.374 10.144C192.478 11.104 191.668 11.9147 190.942 12.576C190.238 13.216 189.726 13.6853 189.406 13.984C189.257 14.2613 189.076 14.6347 188.862 15.104C188.67 15.552 188.5 16.032 188.35 16.544C188.201 17.0347 188.126 17.4933 188.126 17.92C188.126 18.2827 188.212 18.592 188.382 18.848C188.553 19.0827 188.841 19.2 189.246 19.2C189.31 19.2 189.374 19.2 189.438 19.2C189.502 19.2 189.577 19.1893 189.662 19.168C190.025 19.104 190.42 18.9013 190.846 18.56C191.273 18.2187 191.7 17.824 192.126 17.376C192.553 16.928 192.937 16.5013 193.278 16.096C193.428 15.9253 193.566 15.7653 193.694 15.616C193.822 15.4453 193.908 15.328 193.95 15.264C194.1 15.4133 194.089 15.6053 193.918 15.84C193.769 16.0533 193.641 16.2347 193.534 16.384C193.385 16.576 193.172 16.8427 192.894 17.184C192.617 17.504 192.297 17.856 191.934 18.24C191.529 18.6453 191.028 19.0507 190.43 19.456C189.833 19.8613 189.225 20.064 188.606 20.064ZM189.95 12.704C190.612 12.1493 191.444 11.36 192.446 10.336C193.47 9.29067 194.473 8.032 195.454 6.56C195.561 6.38933 195.732 6.10133 195.966 5.696C196.222 5.29067 196.478 4.832 196.734 4.32C197.012 3.78667 197.246 3.27467 197.438 2.784C197.63 2.272 197.726 1.83467 197.726 1.472C197.726 1.13067 197.63 0.959999 197.438 0.959999C197.204 0.959999 196.894 1.16267 196.51 1.568C196.062 2.03733 195.55 2.73067 194.974 3.648C194.42 4.544 193.833 5.54667 193.214 6.656C192.596 7.76533 191.998 8.85333 191.422 9.92C190.868 10.9867 190.377 11.9147 189.95 12.704ZM199.994 7.776C199.695 7.776 199.482 7.68 199.354 7.488C199.269 7.38133 199.226 7.24267 199.226 7.072C199.226 6.73067 199.386 6.45333 199.706 6.24C199.941 6.112 200.154 6.048 200.346 6.048C200.666 6.048 200.89 6.144 201.018 6.336C201.103 6.44267 201.146 6.58133 201.146 6.752C201.146 7.09333 200.975 7.37067 200.634 7.584C200.442 7.712 200.229 7.776 199.994 7.776ZM194.426 20.096C194.213 20.096 194.031 20.0533 193.882 19.968C193.754 19.8827 193.69 19.7227 193.69 19.488C193.69 19.1893 193.765 18.8373 193.914 18.432C194.085 18.0267 194.266 17.6213 194.458 17.216C194.671 16.8107 194.831 16.48 194.938 16.224C195.087 15.9253 195.269 15.5413 195.482 15.072C195.717 14.5813 195.93 14.1227 196.122 13.696C196.335 13.248 196.485 12.9387 196.57 12.768C196.271 13.088 195.909 13.4933 195.482 13.984C195.077 14.4533 194.693 14.912 194.33 15.36C193.967 15.808 193.69 16.16 193.498 16.416C193.434 16.5013 193.381 16.544 193.338 16.544C193.295 16.544 193.274 16.4907 193.274 16.384C193.274 16.2133 193.327 16.0533 193.434 15.904C193.839 15.392 194.287 14.816 194.778 14.176C195.29 13.536 195.749 12.9493 196.154 12.416C196.559 11.8613 196.815 11.4987 196.922 11.328C197.157 11.2853 197.498 11.2213 197.946 11.136C198.415 11.0507 198.735 10.9333 198.906 10.784C198.97 10.72 199.034 10.688 199.098 10.688C199.141 10.688 199.162 10.7307 199.162 10.816C199.183 10.88 199.162 10.9547 199.098 11.04C198.97 11.1893 198.746 11.552 198.426 12.128C198.106 12.704 197.765 13.344 197.402 14.048C197.061 14.7307 196.741 15.3493 196.442 15.904C196.143 16.48 195.887 17.0347 195.674 17.568C195.461 18.1013 195.354 18.4853 195.354 18.72C195.354 19.0187 195.503 19.168 195.802 19.168C196.079 19.168 196.431 18.9973 196.858 18.656C197.306 18.3147 197.754 17.9093 198.202 17.44C198.65 16.9493 199.045 16.5013 199.386 16.096C199.493 15.968 199.621 15.8187 199.77 15.648C199.941 15.456 200.047 15.3387 200.09 15.296C200.133 15.3387 200.154 15.4133 200.154 15.52C200.133 15.6693 200.079 15.8187 199.994 15.968C199.909 16.096 199.823 16.2133 199.738 16.32C199.29 16.8747 198.799 17.4507 198.266 18.048C197.733 18.624 197.146 19.1147 196.506 19.52C195.866 19.904 195.173 20.096 194.426 20.096ZM200.838 20.256C200.049 20.256 199.494 20.1067 199.174 19.808C198.854 19.5093 198.694 19.1253 198.694 18.656C198.694 18.0373 198.897 17.3547 199.302 16.608C199.708 15.84 200.092 15.2 200.454 14.688C200.817 14.1973 201.222 13.7387 201.67 13.312C202.14 12.864 202.641 12.48 203.174 12.16C203.516 11.9467 203.974 11.7227 204.55 11.488C205.148 11.232 205.649 11.104 206.054 11.104C206.545 11.104 206.886 11.2213 207.078 11.456C207.27 11.6693 207.366 11.936 207.366 12.256C207.366 12.512 207.324 12.7787 207.238 13.056C207.153 13.312 207.057 13.5573 206.95 13.792C206.886 13.92 206.79 14.016 206.662 14.08C206.534 14.1227 206.47 14.1013 206.47 14.016C206.47 13.9093 206.481 13.8133 206.502 13.728C206.524 13.6427 206.534 13.5467 206.534 13.44C206.534 13.0347 206.438 12.64 206.246 12.256C206.076 11.8507 205.809 11.648 205.446 11.648C205.062 11.648 204.646 11.7867 204.198 12.064C203.75 12.32 203.441 12.544 203.27 12.736C202.716 13.312 202.172 14.0267 201.638 14.88C201.126 15.7333 200.753 16.544 200.518 17.312C200.369 17.76 200.294 18.144 200.294 18.464C200.294 18.8267 200.39 19.0827 200.582 19.232C200.774 19.3813 201.009 19.456 201.286 19.456C201.5 19.456 201.724 19.424 201.958 19.36C202.214 19.296 202.481 19.2213 202.758 19.136C203.398 18.9227 204.038 18.592 204.678 18.144C205.34 17.6747 205.937 17.184 206.47 16.672C207.004 16.1387 207.409 15.68 207.686 15.296C207.729 15.3387 207.75 15.4027 207.75 15.488C207.75 15.5947 207.708 15.7227 207.622 15.872C207.537 16 207.473 16.1067 207.43 16.192C206.982 16.7893 206.396 17.408 205.67 18.048C204.945 18.6667 204.156 19.1893 203.302 19.616C202.47 20.0427 201.649 20.256 200.838 20.256ZM213.775 7.776C213.477 7.776 213.263 7.68 213.135 7.488C213.05 7.38133 213.007 7.24267 213.007 7.072C213.007 6.73067 213.167 6.45333 213.487 6.24C213.722 6.112 213.935 6.048 214.127 6.048C214.447 6.048 214.671 6.144 214.799 6.336C214.885 6.44267 214.927 6.58133 214.927 6.752C214.927 7.09333 214.757 7.37067 214.415 7.584C214.223 7.712 214.01 7.776 213.775 7.776ZM208.207 20.096C207.994 20.096 207.813 20.0533 207.663 19.968C207.535 19.8827 207.471 19.7227 207.471 19.488C207.471 19.1893 207.546 18.8373 207.695 18.432C207.866 18.0267 208.047 17.6213 208.239 17.216C208.453 16.8107 208.613 16.48 208.719 16.224C208.869 15.9253 209.05 15.5413 209.263 15.072C209.498 14.5813 209.711 14.1227 209.903 13.696C210.117 13.248 210.266 12.9387 210.351 12.768C210.053 13.088 209.69 13.4933 209.263 13.984C208.858 14.4533 208.474 14.912 208.111 15.36C207.749 15.808 207.471 16.16 207.279 16.416C207.215 16.5013 207.162 16.544 207.119 16.544C207.077 16.544 207.055 16.4907 207.055 16.384C207.055 16.2133 207.109 16.0533 207.215 15.904C207.621 15.392 208.069 14.816 208.559 14.176C209.071 13.536 209.53 12.9493 209.935 12.416C210.341 11.8613 210.597 11.4987 210.703 11.328C210.938 11.2853 211.279 11.2213 211.727 11.136C212.197 11.0507 212.517 10.9333 212.687 10.784C212.751 10.72 212.815 10.688 212.879 10.688C212.922 10.688 212.943 10.7307 212.943 10.816C212.965 10.88 212.943 10.9547 212.879 11.04C212.751 11.1893 212.527 11.552 212.207 12.128C211.887 12.704 211.546 13.344 211.183 14.048C210.842 14.7307 210.522 15.3493 210.223 15.904C209.925 16.48 209.669 17.0347 209.455 17.568C209.242 18.1013 209.135 18.4853 209.135 18.72C209.135 19.0187 209.285 19.168 209.583 19.168C209.861 19.168 210.213 18.9973 210.639 18.656C211.087 18.3147 211.535 17.9093 211.983 17.44C212.431 16.9493 212.826 16.5013 213.167 16.096C213.274 15.968 213.402 15.8187 213.551 15.648C213.722 15.456 213.829 15.3387 213.871 15.296C213.914 15.3387 213.935 15.4133 213.935 15.52C213.914 15.6693 213.861 15.8187 213.775 15.968C213.69 16.096 213.605 16.2133 213.519 16.32C213.071 16.8747 212.581 17.4507 212.047 18.048C211.514 18.624 210.927 19.1147 210.287 19.52C209.647 19.904 208.954 20.096 208.207 20.096ZM217.628 20.096C217.414 20.096 217.233 20.0533 217.084 19.968C216.934 19.8827 216.86 19.7227 216.86 19.488C216.86 19.1893 216.934 18.848 217.084 18.464C217.233 18.08 217.404 17.7067 217.596 17.344C217.788 16.96 217.958 16.6507 218.108 16.416C217.361 17.2053 216.582 17.952 215.772 18.656C215.366 18.9973 214.918 19.3173 214.428 19.616C213.937 19.9147 213.414 20.064 212.86 20.064C212.646 20.064 212.497 20 212.412 19.872C212.326 19.7227 212.284 19.552 212.284 19.36C212.284 19.2533 212.294 19.1787 212.316 19.136C212.422 18.304 212.689 17.44 213.116 16.544C213.542 15.648 214.065 14.8053 214.684 14.016C215.302 13.2267 215.932 12.5867 216.572 12.096C217.297 11.5413 218.097 11.264 218.972 11.264H222.652C222.758 11.264 222.812 11.3067 222.812 11.392C222.812 11.5627 222.716 11.648 222.524 11.648C222.31 11.648 222.097 11.7867 221.884 12.064C221.67 12.32 221.51 12.5333 221.404 12.704C221.254 12.9387 221.02 13.3333 220.7 13.888C220.38 14.4427 220.049 15.0507 219.708 15.712C219.388 16.352 219.11 16.9493 218.876 17.504C218.641 18.0587 218.524 18.464 218.524 18.72C218.524 19.0187 218.673 19.168 218.972 19.168C219.292 19.168 219.654 19.0187 220.06 18.72C220.465 18.4213 220.87 18.0587 221.276 17.632C221.702 17.184 222.086 16.7467 222.428 16.32C222.79 15.872 223.078 15.52 223.292 15.264C223.42 15.392 223.409 15.5733 223.26 15.808C223.132 16.0213 223.014 16.192 222.908 16.32C222.481 16.8747 221.99 17.4507 221.436 18.048C220.881 18.624 220.273 19.1147 219.612 19.52C218.972 19.904 218.31 20.096 217.628 20.096ZM214.172 18.976C214.428 18.976 214.78 18.7947 215.228 18.432C215.697 18.048 216.198 17.5787 216.732 17.024C217.265 16.448 217.766 15.8507 218.236 15.232C218.705 14.592 219.089 14.016 219.388 13.504C219.708 12.9707 219.868 12.5653 219.868 12.288C219.868 12.0533 219.793 11.8933 219.644 11.808C219.516 11.7227 219.345 11.68 219.132 11.68C218.79 11.68 218.417 11.808 218.012 12.064C217.628 12.2987 217.318 12.5333 217.084 12.768C216.828 13.0027 216.518 13.376 216.156 13.888C215.814 14.3787 215.473 14.9227 215.132 15.52C214.79 16.1173 214.502 16.6933 214.268 17.248C214.033 17.8027 213.916 18.2507 213.916 18.592C213.916 18.848 214.001 18.976 214.172 18.976Z" fill="#858585"/>
</svg>
